<svg class="diagram-root" style="background: #f5f6f6" xmlns="http://www.w3.org/2000/svg" xmlns:xlink="http://www.w3.org/1999/xlink"><style>.diagram-root { font-family: "Helvetica Neue", sans-serif; font-size: 12px; } .t { overflow: visible; } .t-bg { y: 40; fill: #fff;   } .th { fill: #005aa0;   } .tht { fill: #fff; font-size: 14px;  } .tf { fill: #323c46; overflow: visible; } .tf.pk { fill: #005aa0; font-weight: bold; } .tf.fk { font-weight: bold; } .ty { fill: #adb1b5; font-weight: normal; text-anchor: end; } .r { fill: transparent; stroke: #c3c3c3; stroke-width: 1; } .l { stroke: 1; } .i { fill: #c2c7ce; stroke: #c2c7ce; } .i.ix { fill: #afb3b6; stroke: #000; } .fa { fill: transparent; overflow: visible; } .fa .bg.hover { fill: #f7f7f7; } .c { cy: 12; r: 4; stroke: #d2d2dc; fill: #d2d2dc; } .hr { fill: transparent; stroke: #323c46; stroke-opacity: 0.035; stroke-width: 13; } .dc { stroke: #fa5a3c; fill: #fa5a3c; } .x { stroke: white; stroke-width: 1; } .hl .th { fill: #1b9bff; } .hl .tht {  } .fhl .bg { fill: #e7f4ff; } .fhls .bg {  } .r.hl { stroke: #1b9bff; } .dim { opacity: 0.25; }</style><g class="drawing-wrapper" transform="translate(35.33444444444442, 13.440000000000001) scale(1,1)"><g class="rs"><path d="M 150.36 554.27 m -1, 0 a 1,1 0 1,0 2,0 a 1,1 0 1,0 -2,0 M 150.36 554.27 m -0.5, 0 a 0.5,0.5 0 1,0 1,0 a 0.5,0.5 0 1,0 -1,0  M150.36 554.27 L150.36 554.27 162.36 554.27 M 150.36 560.27 m -1, 0 a 1,1 0 1,0 2,0 a 1,1 0 1,0 -2,0 M 150.36 560.27 m -0.5, 0 a 0.5,0.5 0 1,0 1,0 a 0.5,0.5 0 1,0 -1,0  M150.36 560.27 L150.36 560.27 157.36 554.27 150.36 548.27 M 150.36 548.27 m -1, 0 a 1,1 0 1,0 2,0 a 1,1 0 1,0 -2,0 M 150.36 548.27 m -0.5, 0 a 0.5,0.5 0 1,0 1,0 a 0.5,0.5 0 1,0 -1,0  M162.36 554.27 Q 220.75 554.27, 279.13 414.86 T 395.89 275.44 M 407.89 275.44 m -1, 0 a 1,1 0 1,0 2,0 a 1,1 0 1,0 -2,0 M 407.89 275.44 m -0.5, 0 a 0.5,0.5 0 1,0 1,0 a 0.5,0.5 0 1,0 -1,0  M407.89 275.44 L407.89 275.44 395.89 275.44 M401.89 281.44 L401.89 281.44 401.89 269.44" id="h4189251200" class="r"></path><path d="M 3.19 579.27 m -1, 0 a 1,1 0 1,0 2,0 a 1,1 0 1,0 -2,0 M 3.19 579.27 m -0.5, 0 a 0.5,0.5 0 1,0 1,0 a 0.5,0.5 0 1,0 -1,0  M3.19 579.27 L3.19 579.27 -8.81 579.27 M 3.19 585.27 m -1, 0 a 1,1 0 1,0 2,0 a 1,1 0 1,0 -2,0 M 3.19 585.27 m -0.5, 0 a 0.5,0.5 0 1,0 1,0 a 0.5,0.5 0 1,0 -1,0  M3.19 585.27 L3.19 585.27 -3.81 579.27 3.19 573.27 M 3.19 573.27 m -1, 0 a 1,1 0 1,0 2,0 a 1,1 0 1,0 -2,0 M 3.19 573.27 m -0.5, 0 a 0.5,0.5 0 1,0 1,0 a 0.5,0.5 0 1,0 -1,0  M-8.81 579.27 C -85.24199999999999 579.27, -75.33 228.11, -25.33 228.11 M -13.33 228.11 m -1, 0 a 1,1 0 1,0 2,0 a 1,1 0 1,0 -2,0 M -13.33 228.11 m -0.5, 0 a 0.5,0.5 0 1,0 1,0 a 0.5,0.5 0 1,0 -1,0  M-13.33 228.11 L-13.33 228.11 -25.33 228.11 M-19.33 234.11 L-19.33 234.11 -19.33 222.11" id="h1882043173" class="r"></path><path d="M 364.78 73.56 m -1, 0 a 1,1 0 1,0 2,0 a 1,1 0 1,0 -2,0 M 364.78 73.56 m -0.5, 0 a 0.5,0.5 0 1,0 1,0 a 0.5,0.5 0 1,0 -1,0  M364.78 73.56 L364.78 73.56 352.78 73.56 M 364.78 79.56 m -1, 0 a 1,1 0 1,0 2,0 a 1,1 0 1,0 -2,0 M 364.78 79.56 m -0.5, 0 a 0.5,0.5 0 1,0 1,0 a 0.5,0.5 0 1,0 -1,0  M364.78 79.56 L364.78 79.56 357.78 73.56 364.78 67.56 M 364.78 67.56 m -1, 0 a 1,1 0 1,0 2,0 a 1,1 0 1,0 -2,0 M 364.78 67.56 m -0.5, 0 a 0.5,0.5 0 1,0 1,0 a 0.5,0.5 0 1,0 -1,0  M352.78 73.56 Q 310.55 73.56, 268.32 150.84 T 183.85 228.11 M 171.85 228.11 m -1, 0 a 1,1 0 1,0 2,0 a 1,1 0 1,0 -2,0 M 171.85 228.11 m -0.5, 0 a 0.5,0.5 0 1,0 1,0 a 0.5,0.5 0 1,0 -1,0  M171.85 228.11 L171.85 228.11 183.85 228.11 M177.85 234.11 L177.85 234.11 177.85 222.11" id="h1248694035" class="r"></path><path d="M 364.78 98.56 m -1, 0 a 1,1 0 1,0 2,0 a 1,1 0 1,0 -2,0 M 364.78 98.56 m -0.5, 0 a 0.5,0.5 0 1,0 1,0 a 0.5,0.5 0 1,0 -1,0  M364.78 98.56 L364.78 98.56 352.78 98.56 M 364.78 104.56 m -1, 0 a 1,1 0 1,0 2,0 a 1,1 0 1,0 -2,0 M 364.78 104.56 m -0.5, 0 a 0.5,0.5 0 1,0 1,0 a 0.5,0.5 0 1,0 -1,0  M364.78 104.56 L364.78 104.56 357.78 98.56 364.78 92.56 M 364.78 92.56 m -1, 0 a 1,1 0 1,0 2,0 a 1,1 0 1,0 -2,0 M 364.78 92.56 m -0.5, 0 a 0.5,0.5 0 1,0 1,0 a 0.5,0.5 0 1,0 -1,0  M352.78 98.56 C 302.78 98.56, 276.914 275.44, 395.89 275.44 M 407.89 275.44 m -1, 0 a 1,1 0 1,0 2,0 a 1,1 0 1,0 -2,0 M 407.89 275.44 m -0.5, 0 a 0.5,0.5 0 1,0 1,0 a 0.5,0.5 0 1,0 -1,0  M407.89 275.44 L407.89 275.44 395.89 275.44 M401.89 281.44 L401.89 281.44 401.89 269.44" id="h1130742295" class="r"></path><path d="M 732.13 174.92000000000002 m -1, 0 a 1,1 0 1,0 2,0 a 1,1 0 1,0 -2,0 M 732.13 174.92000000000002 m -0.5, 0 a 0.5,0.5 0 1,0 1,0 a 0.5,0.5 0 1,0 -1,0  M732.13 174.92000000000002 L732.13 174.92000000000002 720.13 174.92000000000002 M 732.13 180.92000000000002 m -1, 0 a 1,1 0 1,0 2,0 a 1,1 0 1,0 -2,0 M 732.13 180.92000000000002 m -0.5, 0 a 0.5,0.5 0 1,0 1,0 a 0.5,0.5 0 1,0 -1,0  M732.13 180.92000000000002 L732.13 180.92000000000002 725.13 174.92000000000002 732.13 168.92000000000002 M 732.13 168.92000000000002 m -1, 0 a 1,1 0 1,0 2,0 a 1,1 0 1,0 -2,0 M 732.13 168.92000000000002 m -0.5, 0 a 0.5,0.5 0 1,0 1,0 a 0.5,0.5 0 1,0 -1,0  M720.13 174.92000000000002 Q 694.53 174.92000000000002, 668.93 225.18 T 617.72 275.44 M 605.72 275.44 m -1, 0 a 1,1 0 1,0 2,0 a 1,1 0 1,0 -2,0 M 605.72 275.44 m -0.5, 0 a 0.5,0.5 0 1,0 1,0 a 0.5,0.5 0 1,0 -1,0  M605.72 275.44 L605.72 275.44 617.72 275.44 M611.72 281.44 L611.72 281.44 611.72 269.44" id="h221257298" class="r"></path><path d="M 736.11 425.89 m -1, 0 a 1,1 0 1,0 2,0 a 1,1 0 1,0 -2,0 M 736.11 425.89 m -0.5, 0 a 0.5,0.5 0 1,0 1,0 a 0.5,0.5 0 1,0 -1,0  M736.11 425.89 L736.11 425.89 724.11 425.89 M 736.11 431.89 m -1, 0 a 1,1 0 1,0 2,0 a 1,1 0 1,0 -2,0 M 736.11 431.89 m -0.5, 0 a 0.5,0.5 0 1,0 1,0 a 0.5,0.5 0 1,0 -1,0  M736.11 431.89 L736.11 431.89 729.11 425.89 736.11 419.89 M 736.11 419.89 m -1, 0 a 1,1 0 1,0 2,0 a 1,1 0 1,0 -2,0 M 736.11 419.89 m -0.5, 0 a 0.5,0.5 0 1,0 1,0 a 0.5,0.5 0 1,0 -1,0  M724.11 425.89 Q 697.52 425.89, 670.92 363.17 T 617.72 300.44 M 605.72 300.44 m -1, 0 a 1,1 0 1,0 2,0 a 1,1 0 1,0 -2,0 M 605.72 300.44 m -0.5, 0 a 0.5,0.5 0 1,0 1,0 a 0.5,0.5 0 1,0 -1,0  M605.72 300.44 L605.72 300.44 617.72 300.44 M611.72 306.44 L611.72 306.44 611.72 294.44" id="h2157073902" class="r"></path></g><g class="hrs"></g><g class="ts"><svg width="185.18" height="100" x="-13.33" y="171.11" id="h3708248841" class="t"><rect height="40" width="185.18" class="th"></rect><text x="13" y="25" class="tht">Departments</text><rect height="60" width="185.18" class="t-bg" y="40"></rect><text x="13" y="61" class="tf pk">dept_no<tspan x="172.18" class="ty">VARCHAR</tspan></text><path d="M7,14A2,2 0 0,1 5,12A2,2 0 0,1 7,10A2,2 0 0,1 9,12A2,2 0 0,1 7,14M12.65,10C11.83,7.67 9.61,6 7, 6A6, 6 0 0, 0 1, 12A6, 6 0 0, 0 7, 18C9.61, 18 11.83, 16.33 12.65, 14H17V18H21V14H23V10H12.65Z" class="i pk" transform="translate(94.388984375, 48) scale(0.65)"></path><text x="13" y="86" class="tf">dept_name<tspan x="172.18" class="ty">VARCHAR(50)</tspan></text></svg><svg width="147.17" height="100" x="3.19" y="497.27" id="h3353995054" class="t"><rect height="40" width="147.17" class="th"></rect><text x="13" y="25" class="tht">Dept_Emp</text><rect height="60" width="147.17" class="t-bg" y="40"></rect><text x="13" y="61" class="tf fk">Temp_no<tspan x="134.17" class="ty">INT</tspan></text><text x="13" y="86" class="tf fk">dept_no<tspan x="134.17" class="ty">VARCHAR</tspan></text></svg><svg width="147.17" height="100" x="364.78" y="16.56" id="h754932316" class="t"><rect height="40" width="147.17" class="th"></rect><text x="13" y="25" class="tht">Dept_Manager</text><rect height="60" width="147.17" class="t-bg" y="40"></rect><text x="13" y="61" class="tf fk">dept_no<tspan x="134.17" class="ty">VARCHAR</tspan></text><text x="13" y="86" class="tf fk">emp_no<tspan x="134.17" class="ty">INT</tspan></text></svg><svg width="197.83" height="225" x="407.89" y="218.44" id="h3299212598" class="t"><rect height="40" width="197.83" class="th"></rect><text x="13" y="25" class="tht">Employees</text><rect height="185" width="197.83" class="t-bg" y="40"></rect><text x="13" y="61" class="tf pk">emp_no<tspan x="184.83" class="ty">INT</tspan></text><path d="M7,14A2,2 0 0,1 5,12A2,2 0 0,1 7,10A2,2 0 0,1 9,12A2,2 0 0,1 7,14M12.65,10C11.83,7.67 9.61,6 7, 6A6, 6 0 0, 0 1, 12A6, 6 0 0, 0 7, 18C9.61, 18 11.83, 16.33 12.65, 14H17V18H21V14H23V10H12.65Z" class="i pk" transform="translate(145.499921875, 48) scale(0.65)"></path><text x="13" y="86" class="tf fk">emp_title_id<tspan x="184.83" class="ty">(VARCHAR(30))</tspan></text><text x="13" y="111" class="tf">birth_date<tspan x="184.83" class="ty">(DATE)</tspan></text><text x="13" y="136" class="tf">first_name<tspan x="184.83" class="ty">(VARCHAR(50))</tspan></text><text x="13" y="161" class="tf">last_name<tspan x="184.83" class="ty">(VARCHAR(50))</tspan></text><text x="13" y="186" class="tf">sex<tspan x="184.83" class="ty">(CHAR(1))</tspan></text><text x="13" y="211" class="tf">hire_date<tspan x="184.83" class="ty">(DATE)</tspan></text></svg><svg width="146.47" height="100" x="736.11" y="368.89" id="h3517680912" class="t"><rect height="40" width="146.47" class="th"></rect><text x="13" y="25" class="tht">Titles</text><rect height="60" width="146.47" class="t-bg" y="40"></rect><text x="13" y="61" class="tf fk">title_id<tspan x="133.47" class="ty">(VARCHAR)</tspan></text><text x="13" y="86" class="tf">title<tspan x="133.47" class="ty">(VARCHAR)</tspan></text></svg><svg width="116.69" height="100" x="732.13" y="117.92000000000002" id="h3858243705" class="t"><rect height="40" width="116.69" class="th"></rect><text x="13" y="25" class="tht">Salaries</text><rect height="60" width="116.69" class="t-bg" y="40"></rect><text x="13" y="61" class="tf fk">emp_no<tspan x="103.69" class="ty">(INT)</tspan></text><text x="13" y="86" class="tf">salary<tspan x="103.69" class="ty">(INT)</tspan></text></svg></g></g><text class="qdbd-link" x="10" y="20">www.quickdatabasediagrams.com</text></svg>